<svg id="Layer_1" data-name="Layer 1" xmlns="http://www.w3.org/2000/svg" width="1in" height="1in" viewBox="0 0 72 72"><title>instagram</title><path d="M72,32.4v7c0,1.2-.1,2.4-.1,3.7a116.7,116.7,0,0,1-.7,11.8C70.1,62.6,65.8,68,58.3,70.4a24.1,24.1,0,0,1-7.5,1.3H21.1A22.1,22.1,0,0,1,8.3,67.9c-5.5-4-7.8-9.8-8-16.4S0,36.2,0,28.6c0-3.4.1-6.9.4-10.3C1.4,8.3,8.3,1.5,18.2.5L24,0H48l5.8.5c8.5.9,14.9,6.1,16.9,14.1a50.4,50.4,0,0,1,1,8.7C72,26.4,71.9,29.4,72,32.4ZM7,53.2a12,12,0,0,0,5.3,9.5,14.4,14.4,0,0,0,7.2,2.4q6.9.3,13.8.3c6.4,0,12.7-.1,19.1-.4A12.6,12.6,0,0,0,65,52.5c.3-4.6.4-9.3.4-13.9,0-6.4,0-12.8-.4-19.2S60.1,7.6,52.9,7a227.2,227.2,0,0,0-33-.1c-8.5.5-12.8,5.3-13.2,13.9-.1,5.1,0,10.1,0,15.1Z" fill="#b5eac6"/><path d="M17.5,35.9A18.5,18.5,0,1,1,35.9,54.5,18.4,18.4,0,0,1,17.5,35.9ZM24,36A12,12,0,1,0,35.9,24,12,12,0,0,0,24,36Z" fill="#b5eac6"/><path d="M55.2,21.1a4.4,4.4,0,0,1-4.4-4.3A4.2,4.2,0,0,1,55,12.5a4.3,4.3,0,0,1,4.5,4.2A4.4,4.4,0,0,1,55.2,21.1Z" fill="#b5eac6"/></svg>