<svg id="Layer_1" data-name="Layer 1" xmlns="http://www.w3.org/2000/svg" width="1in" height="1in" viewBox="0 0 72 72"><title>vimeo</title><path d="M72,13V59c-.2,1-.4,2-.7,3-1.8,5-5.1,8.2-10.2,9.5L59,72H13l-3-.7A14.4,14.4,0,0,1,.4,61c-.1-.7-.3-1.3-.4-2V13c.2-1,.4-2,.7-3A13.8,13.8,0,0,1,10.9.5L13,0H59l1.1.2a14.8,14.8,0,0,1,6.7,3.1A14.3,14.3,0,0,1,71.6,11C71.7,11.7,71.9,12.3,72,13ZM39.9,25.2h2.9c2.4.1,3.7,1.3,3.8,3.7a14.5,14.5,0,0,1-.4,3.5,23.4,23.4,0,0,1-2.9,6.2,19.4,19.4,0,0,1-2.1,2.9,2.6,2.6,0,0,1-3.2.8,5.2,5.2,0,0,1-1.6-1.4,10.7,10.7,0,0,1-2.2-5.5c-.4-2-.5-4.1-.8-6.1s-.8-4.9-1.3-7.3a12.7,12.7,0,0,0-1.9-5,4.8,4.8,0,0,0-4.9-2.4,12.2,12.2,0,0,0-2.7.9A21.3,21.3,0,0,0,17,19.3l-6.8,5.8c-.8.7-.8.7-.2,1.5l.2.3c.8,1.2,1.4,1.5,2.7,1.2l2.5-.6c1.8-.6,2.9-.1,3.7,1.6s.9,2.4,1.4,3.7c1.7,4.9,2.8,9.9,4.1,14.9a26.1,26.1,0,0,0,3.3,8.1,6.4,6.4,0,0,0,3.9,2.9,7.3,7.3,0,0,0,3.6-.2,18.8,18.8,0,0,0,6.7-3.9A41.2,41.2,0,0,0,48.7,48a70.1,70.1,0,0,0,6.6-9.8,69.9,69.9,0,0,0,6.1-13.7,13.1,13.1,0,0,0,1-5.9,5.1,5.1,0,0,0-3-4.6,11,11,0,0,0-8-.3,18.5,18.5,0,0,0-10.2,8.5C40.7,23.1,40.4,24.1,39.9,25.2Z" fill="#b5eac6"/></svg>